<?xml version="1.0" standalone="no"?><!DOCTYPE svg PUBLIC "-//W3C//DTD SVG 1.1//EN" "http://www.w3.org/Graphics/SVG/1.1/DTD/svg11.dtd"><svg t="1772903226394" class="icon" viewBox="0 0 1024 1024" version="1.1" xmlns="http://www.w3.org/2000/svg" p-id="19395" xmlns:xlink="http://www.w3.org/1999/xlink" width="32" height="32"><path d="M0 0m256 0l512 0q256 0 256 256l0 512q0 256-256 256l-512 0q-256 0-256-256l0-512q0-256 256-256Z" fill="#0070FF" p-id="19396"></path><path d="M576 790.314667a239.36 239.36 0 0 1-207.786667-40.149334 110.165333 110.165333 0 0 0-29.397333-151.424 107.008 107.008 0 0 0-149.546667 29.312 110.165333 110.165333 0 0 0 28.416 151.594667c32.426667 22.058667 73.984 24.746667 108.885334 7.125333a291.626667 291.626667 0 0 0 263.466666 55.893334 27.52 27.52 0 0 0 18.048-34.048 28.032 28.032 0 0 0-32.597333-18.773334l0.469333 0.469334z" fill="#FFFFFF" opacity=".747" p-id="19397"></path><path d="M512.256 170.666667c-56.490667 0.128-103.210667 44.586667-106.88 101.674666a298.112 298.112 0 0 0-179.626667 203.306667 27.989333 27.989333 0 0 0 19.029334 33.578667 27.562667 27.562667 0 0 0 33.152-19.328A243.114667 243.114667 0 0 1 415.914667 327.253333a107.392 107.392 0 0 0 129.109333 57.130667 109.354667 109.354667 0 0 0 74.794667-120.96A108.330667 108.330667 0 0 0 512.725333 170.666667h-0.469333z m293.034667 428.032a302.933333 302.933333 0 0 0-82.304-259.285334 26.88 26.88 0 0 0-47.36 11.221334 27.648 27.648 0 0 0 9.216 27.434666 247.936 247.936 0 0 1 70.272 203.349334 109.056 109.056 0 0 0-116.906667 85.504 110.549333 110.549333 0 0 0 69.333333 128 108.330667 108.330667 0 0 0 133.973334-53.845334 111.146667 111.146667 0 0 0-36.266667-141.397333v-0.981333z" fill="#FFFFFF" p-id="19398"></path></svg>